<?xml version="1.0" encoding="utf-8"?>
<!-- Generator: Adobe Illustrator 16.0.3, SVG Export Plug-In . SVG Version: 6.00 Build 0)  -->
<!DOCTYPE svg PUBLIC "-//W3C//DTD SVG 1.1//EN" "http://www.w3.org/Graphics/SVG/1.1/DTD/svg11.dtd">
<svg version="1.1" id="Capa_1" xmlns="http://www.w3.org/2000/svg" xmlns:xlink="http://www.w3.org/1999/xlink" x="0px" y="0px"
	 width="426.049px" height="425.736px" viewBox="0 0 426.049 425.736" enable-background="new 0 0 426.049 425.736"
	 xml:space="preserve">
<g>
	<path fill-rule="evenodd" clip-rule="evenodd" fill="#080808" d="M417.237,213.538C417.2,326.259,325.106,418.14,212.221,418.079
		C99.48,418.019,7.617,325.966,7.662,213.095C7.707,100.341,99.87,8.596,212.88,8.806C325.52,9.015,417.272,100.937,417.237,213.538
		z M318.484,292.176c-0.016-0.001-0.032-0.001-0.048-0.003c0.095-1.996-0.096-4.058,0.342-5.977
		c1.011-4.437-0.646-6.854-4.643-9.021c-12.286-6.662-24.341-13.752-36.424-20.781c-1.92-1.117-3.448-1.239-5.502-0.301
		c-23.598,10.787-47.236,21.484-70.88,32.172c-2.055,0.928-3.517,1.904-3.977,4.51c-2.629,14.912-5.443,29.793-8.341,44.656
		c-0.416,2.135,0.07,3.342,1.739,4.627c14.251,10.967,28.448,22.004,42.642,33.047c1.351,1.051,2.438,1.852,4.393,0.963
		c25.281-11.508,50.603-22.928,75.936-34.322c1.904-0.856,2.633-1.996,2.717-4.146C317.031,322.454,317.783,307.315,318.484,292.176
		z M262.618,153.417c2.863,0.911,3.899-0.596,5.099-1.698c9.933-9.125,19.762-18.366,29.847-27.319
		c2.582-2.293,2.819-4.265,1.81-7.325c-5.472-16.583-10.804-33.214-16.047-49.872c-0.894-2.839-2.304-4.227-5.323-4.857
		c-25.404-5.3-50.778-10.742-76.134-16.27c-2.972-0.648-4.772-0.024-6.729,2.384c-10.708,13.182-21.525,26.278-32.536,39.208
		c-2.255,2.647-2.183,4.579-0.782,7.49c6.058,12.588,12.005,25.234,17.679,37.999c1.579,3.553,3.47,5.382,7.473,6
		c9.859,1.521,19.627,3.635,29.434,5.498C232.102,147.636,247.796,150.607,262.618,153.417z M93.847,97.957
		c-2.478-0.031-3.833,0.867-5.073,3.041c-12.607,22.109-25.307,44.167-38.093,66.174c-1.205,2.075-1.013,3.441,0.244,5.349
		c9.794,14.866,19.521,29.777,29.137,44.76c1.447,2.255,2.927,3.083,5.641,2.847c14.097-1.232,28.21-2.287,42.324-3.316
		c2.049-0.148,3.3-0.91,4.304-2.732c12.691-23.014,25.43-46.002,38.225-68.959c0.993-1.782,1.084-3.163,0.189-5.063
		c-6.377-13.538-12.682-27.111-18.822-40.757c-1.227-2.727-2.779-3.455-5.667-3.377C137.776,96.149,102.831,98.068,93.847,97.957z
		 M372.482,232.12c-2.898-26.699-5.786-52.827-8.503-78.972c-0.314-3.03-2.174-3.706-4.405-4.535
		c-16.045-5.962-32.101-11.896-48.081-18.029c-2.621-1.006-4.172-0.52-6.122,1.312c-10.065,9.456-20.255,18.78-30.448,28.097
		c-1.43,1.307-2.351,2.517-2.143,4.664c2.505,25.834,4.951,51.674,7.301,77.523c0.226,2.479,1.289,3.781,3.368,4.955
		c12.742,7.191,25.44,14.461,38.072,21.844c2.073,1.211,3.456,1.043,5.308-0.342c14.39-10.76,28.838-21.441,43.307-32.094
		C371.906,235.24,373.048,233.861,372.482,232.12z M186.835,289.845c0.802-2.192-0.544-3.139-1.538-4.229
		c-16.936-18.57-33.897-37.117-50.778-55.737c-1.731-1.91-3.373-2.567-6.035-2.313c-13.583,1.299-27.188,2.408-40.801,3.341
		c-3.107,0.213-4.551,1.139-5.525,4.268c-5.239,16.823-10.722,33.57-16.281,50.29c-0.851,2.561-0.466,4.225,1.283,6.232
		c16.511,18.948,32.935,37.972,49.314,57.033c1.459,1.699,2.744,2.455,5.088,1.918c17.828-4.087,35.686-8.037,53.534-12.036
		c1.471-0.329,2.864-0.625,3.215-2.553C181.143,320.515,184.035,304.981,186.835,289.845z M386.685,128.713
		c-3.666,5.61-6.636,10.407-9.872,15.015c-1.948,2.774-2.323,5.52-1.935,8.873c2.334,20.162,4.419,40.354,6.597,60.534
		c0.785,7.273-0.026,15.258,2.79,21.638c3.779,8.563,10.372,15.883,16.465,24.768C411.017,213.673,406.52,170.838,386.685,128.713z
		 M349.022,350.845c-6.728-0.318-12.176-0.322-17.564-0.895c-6.362-0.676-11.963,0.941-17.71,3.611
		c-22.605,10.506-45.208,21.053-68.166,30.748c-10.903,4.604-15.71,14.588-23.394,22.141
		C271.122,403.903,312.902,385.53,349.022,350.845z M114.086,380.378c-0.819-6.365-1.593-11.748-2.172-17.152
		c-0.278-2.598-1.285-4.635-3.012-6.615c-16.829-19.307-33.568-38.691-50.339-58.048c-6.65-7.675-16.616-8.315-25.101-12.243
		C49.871,326.46,76.497,357.47,114.086,380.378z M184.959,21.681c4.768,4.469,8.637,8.092,12.501,11.72
		c1.024,0.961,2.314,1.221,3.63,1.499c25.22,5.331,50.561,10.164,75.597,16.252c11.626,2.828,20.165-3.24,31.061-6.298
		C268.933,23.396,228.806,16.219,184.959,21.681z M81.869,70.569c-31.394,29.502-51.001,63.994-58.904,105.223
		c5.568-4.541,13.463-5.821,17.272-12.352c12.406-21.267,24.069-42.988,37.057-63.888C83.006,90.362,81.22,81.226,81.869,70.569z"/>
	<path fill-rule="evenodd" clip-rule="evenodd" fill="#FDFDFC" d="M318.484,292.176c-0.701,15.14-1.453,30.278-2.046,45.423
		c-0.084,2.15-0.813,3.29-2.717,4.146c-25.333,11.395-50.654,22.814-75.936,34.322c-1.955,0.889-3.042,0.088-4.393-0.963
		c-14.193-11.043-28.39-22.08-42.642-33.047c-1.669-1.285-2.155-2.492-1.739-4.627c2.898-14.863,5.712-29.744,8.341-44.656
		c0.459-2.605,1.922-3.582,3.977-4.51c23.644-10.688,47.282-21.385,70.88-32.172c2.054-0.938,3.582-0.816,5.502,0.301
		c12.083,7.029,24.138,14.119,36.424,20.781c3.996,2.167,5.653,4.585,4.643,9.021c-0.438,1.919-0.247,3.98-0.342,5.977
		C318.452,292.175,318.469,292.175,318.484,292.176z"/>
	<path fill-rule="evenodd" clip-rule="evenodd" fill="#FDFDFC" d="M262.618,153.417c-14.822-2.81-30.517-5.781-46.209-8.762
		c-9.807-1.863-19.575-3.977-29.434-5.498c-4.003-0.618-5.894-2.447-7.473-6c-5.674-12.764-11.621-25.411-17.679-37.999
		c-1.401-2.912-1.473-4.843,0.782-7.49c11.011-12.929,21.828-26.025,32.536-39.208c1.956-2.408,3.756-3.032,6.729-2.384
		c25.355,5.527,50.729,10.969,76.134,16.27c3.02,0.63,4.43,2.018,5.323,4.857c5.243,16.658,10.575,33.289,16.047,49.872
		c1.01,3.06,0.772,5.032-1.81,7.325c-10.085,8.953-19.914,18.194-29.847,27.319C266.518,152.821,265.481,154.328,262.618,153.417z"
		/>
	<path fill-rule="evenodd" clip-rule="evenodd" fill="#FDFDFC" d="M146.255,95.921c2.888-0.078,4.44,0.65,5.667,3.377
		c6.14,13.646,12.444,27.22,18.822,40.757c0.895,1.9,0.804,3.281-0.189,5.063c-12.794,22.957-25.534,45.945-38.225,68.959
		c-1.004,1.822-2.255,2.584-4.304,2.732c-14.114,1.029-28.227,2.084-42.324,3.316c-2.714,0.236-4.193-0.592-5.641-2.847
		c-9.616-14.982-19.343-29.894-29.137-44.76c-1.257-1.908-1.449-3.274-0.244-5.349c12.786-22.007,25.486-44.064,38.093-66.174
		c1.24-2.174,2.595-3.071,5.073-3.041C102.831,98.068,137.776,96.149,146.255,95.921z"/>
	<path fill-rule="evenodd" clip-rule="evenodd" fill="#FDFDFC" d="M372.482,232.12c0.565,1.741-0.576,3.12-2.347,4.424
		c-14.469,10.652-28.917,21.334-43.307,32.094c-1.852,1.385-3.234,1.553-5.308,0.342c-12.632-7.383-25.33-14.652-38.072-21.844
		c-2.079-1.174-3.143-2.477-3.368-4.955c-2.35-25.85-4.796-51.689-7.301-77.523c-0.208-2.147,0.713-3.357,2.143-4.664
		c10.193-9.317,20.383-18.642,30.448-28.097c1.95-1.832,3.501-2.317,6.122-1.312c15.98,6.133,32.036,12.066,48.081,18.029
		c2.231,0.829,4.091,1.505,4.405,4.535C366.696,179.293,369.584,205.421,372.482,232.12z"/>
	<path fill-rule="evenodd" clip-rule="evenodd" fill="#FDFDFC" d="M186.835,289.845c-2.8,15.137-5.693,30.67-8.524,46.214
		c-0.352,1.928-1.745,2.224-3.215,2.553c-17.848,3.999-35.707,7.949-53.534,12.036c-2.344,0.537-3.628-0.219-5.088-1.918
		c-16.379-19.062-32.803-38.085-49.314-57.033c-1.75-2.008-2.134-3.672-1.283-6.232c5.559-16.72,11.042-33.467,16.281-50.29
		c0.975-3.129,2.418-4.055,5.525-4.268c13.614-0.933,27.218-2.042,40.801-3.341c2.662-0.254,4.303,0.403,6.035,2.313
		c16.881,18.62,33.843,37.167,50.778,55.737C186.292,286.706,187.638,287.652,186.835,289.845z"/>
	<path fill-rule="evenodd" clip-rule="evenodd" fill="#FDFDFC" d="M386.685,128.713c19.835,42.125,24.332,84.96,14.045,130.827
		c-6.093-8.885-12.686-16.205-16.465-24.768c-2.816-6.38-2.005-14.365-2.79-21.638c-2.178-20.18-4.263-40.372-6.597-60.534
		c-0.389-3.354-0.014-6.099,1.935-8.873C380.049,139.12,383.019,134.323,386.685,128.713z"/>
	<path fill-rule="evenodd" clip-rule="evenodd" fill="#FDFDFC" d="M349.022,350.845c-36.12,34.686-77.9,53.059-126.834,55.605
		c7.684-7.553,12.49-17.537,23.394-22.141c22.958-9.695,45.561-20.242,68.166-30.748c5.747-2.67,11.348-4.287,17.71-3.611
		C336.847,350.522,342.295,350.526,349.022,350.845z"/>
	<path fill-rule="evenodd" clip-rule="evenodd" fill="#FDFDFC" d="M114.086,380.378c-37.589-22.908-64.216-53.918-80.624-94.059
		c8.484,3.928,18.45,4.568,25.101,12.243c16.771,19.356,33.51,38.741,50.339,58.048c1.727,1.98,2.733,4.018,3.012,6.615
		C112.494,368.63,113.268,374.013,114.086,380.378z"/>
	<path fill-rule="evenodd" clip-rule="evenodd" fill="#FDFDFC" d="M184.959,21.681c43.847-5.462,83.974,1.715,122.789,23.173
		c-10.896,3.058-19.435,9.125-31.061,6.298c-25.036-6.089-50.377-10.921-75.597-16.252c-1.316-0.278-2.606-0.537-3.63-1.499
		C193.596,29.773,189.727,26.15,184.959,21.681z"/>
	<path fill-rule="evenodd" clip-rule="evenodd" fill="#FDFDFC" d="M81.869,70.569c-0.649,10.657,1.137,19.793-4.575,28.983
		c-12.988,20.9-24.65,42.621-37.057,63.888c-3.809,6.53-11.704,7.811-17.272,12.352C30.868,134.563,50.475,100.072,81.869,70.569z"
		/>
</g>
</svg>
